<svg xmlns="http://www.w3.org/2000/svg" xmlns:xlink="http://www.w3.org/1999/xlink" version="1.1" x="0px" y="0px" viewBox="0 0 100 125" enable-background="new 0 0 100 100" xml:space="preserve"><g><circle cx="61.787" cy="52.244" r="1.162"/><circle cx="46.088" cy="54.75" r="1.162"/><circle cx="56.412" cy="61.75" r="1.162"/><circle cx="53.917" cy="71.588" r="1.162"/><circle cx="71.838" cy="58.5" r="1.162"/><circle cx="43.088" cy="67.75" r="1.162"/><circle cx="27.25" cy="62.921" r="1.162"/><circle cx="33.754" cy="54.75" r="1.162"/><circle cx="70.955" cy="43.75" r="1.295"/><circle cx="51.455" cy="44" r="1.295"/><circle cx="41.439" cy="41.333" r="1.561"/><circle cx="59.861" cy="40.182" r="1.826"/><circle cx="29.917" cy="41.258" r="1.826"/><path d="M76.75,27.25c-2.804,0-4.277,1.321-5.461,2.383c-1.047,0.938-1.804,1.617-3.46,1.617s-2.412-0.678-3.458-1.617   c-1.185-1.062-2.658-2.383-5.463-2.383c-2.803,0-4.275,1.322-5.459,2.383c-1.046,0.938-1.801,1.617-3.456,1.617   c-1.655,0-2.411-0.678-3.457-1.617c-1.184-1.062-2.657-2.383-5.46-2.383c-2.803,0-4.275,1.322-5.459,2.384   c-1.045,0.938-1.801,1.616-3.455,1.616c-1.653,0-2.409-0.678-3.454-1.616c-1.183-1.062-2.655-2.384-5.458-2.384   c-0.829,0-1.5,0.671-1.5,1.5s0.671,1.5,1.5,1.5c1.653,0,2.409,0.678,3.454,1.616c1.183,1.062,2.655,2.384,5.458,2.384   s4.275-1.322,5.459-2.384c1.045-0.938,1.801-1.616,3.455-1.616c1.655,0,2.411,0.678,3.458,1.617   c1.184,1.062,2.657,2.383,5.46,2.383s4.276-1.322,5.459-2.384c1.046-0.938,1.801-1.616,3.455-1.616c1.656,0,2.413,0.678,3.46,1.617   c1.184,1.062,2.657,2.383,5.461,2.383c2.805,0,4.278-1.322,5.463-2.383c1.046-0.938,1.802-1.617,3.458-1.617   c0.828,0,1.5-0.671,1.5-1.5S77.578,27.25,76.75,27.25z"/></g><text x="15" y="90" fill="#000000" font-size="12px" font-weight="bold" font-family="'Helvetica Neue', Helvetica, Arial-Unicode, Arial, Sans-serif">Groundwater</text></svg>