<svg xmlns="http://www.w3.org/2000/svg" xmlns:sodipodi="http://sodipodi.sourceforge.net/DTD/sodipodi-0.dtd" viewBox="0 0 100 125" x="0px" y="0px"><path d="m 17.852292,86.192315 -4.044134,-4.044162 4.546784,-4.54681 -2.410334,-2.410342 9.691871,-0.828031 -0.828024,9.691933 -2.410326,-2.410342 z" color="#000"/><path d="m 39.736842,5.0000001 c -8.720285,0 -15.789474,7.0691879 -15.789474,15.7894739 l 0,39.473684 c 0,8.720285 7.069189,15.789474 15.789474,15.789474 l 39.473684,0 C 87.930808,76.052632 95,68.983443 95,60.263158 L 95,20.789474 C 95,12.069188 87.930808,5.0000001 79.210526,5.0000001 l -39.473684,0 z m 0,2.368421 39.473684,0 c 7.412242,0 13.421053,6.0088109 13.421053,13.4210529 l 0,39.473684 c 0,7.412242 -6.008811,13.421053 -13.421053,13.421053 l -39.473684,0 c -7.412243,0 -13.421053,-6.008811 -13.421053,-13.421053 l 0,-39.473684 c 0,-7.412242 6.00881,-13.4210529 13.421053,-13.4210529 z" color="#000"/><path d="m 32.803203,93.455377 c 0,0.853072 -0.69155,1.544623 -1.544622,1.544623 -0.853072,0 -1.544622,-0.691551 -1.544622,-1.544623 0,-0.853071 0.69155,-1.544622 1.544622,-1.544622 0.853072,0 1.544622,0.691551 1.544622,1.544622 z" color="#000"/><path d="M 38.981693,93.455377 C 38.981693,94.308449 38.290143,95 37.43707,95 c -0.853071,0 -1.544621,-0.691551 -1.544621,-1.544623 0,-0.853071 0.69155,-1.544622 1.544621,-1.544622 0.853073,0 1.544623,0.691551 1.544623,1.544622 z" color="#000"/><path d="M 45.160183,93.455377 C 45.160183,94.308449 44.468632,95 43.61556,95 c -0.853071,0 -1.544622,-0.691551 -1.544622,-1.544623 0,-0.853071 0.691551,-1.544622 1.544622,-1.544622 0.853072,0 1.544623,0.691551 1.544623,1.544622 z" color="#000"/><path d="M 51.338673,93.455377 C 51.338673,94.308449 50.647122,95 49.79405,95 c -0.853071,0 -1.544622,-0.691551 -1.544622,-1.544623 0,-0.853071 0.691551,-1.544622 1.544622,-1.544622 0.853072,0 1.544623,0.691551 1.544623,1.544622 z" color="#000"/><path d="M 57.517162,93.455377 C 57.517162,94.308449 56.825612,95 55.97254,95 c -0.853072,0 -1.544622,-0.691551 -1.544622,-1.544623 0,-0.853071 0.69155,-1.544622 1.544622,-1.544622 0.853072,0 1.544622,0.691551 1.544622,1.544622 z" color="#000"/><path d="m 14.267734,91.87643 c 0,0.853071 -0.69155,1.544623 -1.544622,1.544623 -0.853072,0 -1.544622,-0.691552 -1.544622,-1.544623 0,-0.853071 0.69155,-1.544623 1.544622,-1.544623 0.853072,0 1.544622,0.691552 1.544622,1.544623 z" color="#000"/><path d="M 20.446224,93.455377 C 20.446224,94.308449 19.754673,95 18.901601,95 c -0.853071,0 -1.544622,-0.691551 -1.544622,-1.544623 0,-0.853071 0.691551,-1.544622 1.544622,-1.544622 0.853072,0 1.544623,0.691551 1.544623,1.544622 z" color="#000"/><path d="M 26.624714,93.455377 C 26.624714,94.308449 25.933163,95 25.080091,95 c -0.853071,0 -1.544622,-0.691551 -1.544622,-1.544623 0,-0.853071 0.691551,-1.544622 1.544622,-1.544622 0.853072,0 1.544623,0.691551 1.544623,1.544622 z" color="#000"/><path d="m 63.695652,93.455377 c 0,0.853072 -0.69155,1.544623 -1.544623,1.544623 -0.853071,0 -1.544622,-0.691551 -1.544622,-1.544623 0,-0.853071 0.691551,-1.544622 1.544622,-1.544622 0.853073,0 1.544623,0.691551 1.544623,1.544622 z" color="#000"/><path d="m 69.874142,91.87643 c 0,0.853071 -0.691552,1.544623 -1.544623,1.544623 -0.853071,0 -1.544622,-0.691552 -1.544622,-1.544623 0,-0.853071 0.691551,-1.544623 1.544622,-1.544623 0.853071,0 1.544623,0.691552 1.544623,1.544623 z" color="#000"/><path d="m 74.473684,31.670478 c 0,-0.853072 -0.69155,-1.544623 -1.544623,-1.544623 -0.853071,0 -1.544622,0.691551 -1.544622,1.544623 0,0.853071 0.691551,1.544622 1.544622,1.544622 0.853073,0 1.544623,-0.691551 1.544623,-1.544622 z" color="#000"/><path d="m 76.052631,37.848967 c 0,-0.853072 -0.69155,-1.544622 -1.544622,-1.544622 -0.853071,0 -1.544623,0.69155 -1.544623,1.544622 0,0.853072 0.691552,1.544623 1.544623,1.544623 0.853072,0 1.544622,-0.691551 1.544622,-1.544623 z" color="#000"/><path d="m 76.052631,44.027457 c 0,-0.853072 -0.69155,-1.544622 -1.544622,-1.544622 -0.853071,0 -1.544623,0.69155 -1.544623,1.544622 0,0.853071 0.691552,1.544623 1.544623,1.544623 0.853072,0 1.544622,-0.691552 1.544622,-1.544623 z" color="#000"/><path d="m 76.052631,50.205947 c 0,-0.853072 -0.69155,-1.544623 -1.544622,-1.544623 -0.853071,0 -1.544623,0.691551 -1.544623,1.544623 0,0.853071 0.691552,1.544622 1.544623,1.544622 0.853072,0 1.544622,-0.691551 1.544622,-1.544622 z" color="#000"/><path d="m 76.052631,56.384437 c 0,-0.853072 -0.69155,-1.544623 -1.544622,-1.544623 -0.853071,0 -1.544623,0.691551 -1.544623,1.544623 0,0.853071 0.691552,1.544621 1.544623,1.544621 0.853072,0 1.544622,-0.69155 1.544622,-1.544621 z" color="#000"/><path d="m 76.052631,62.562926 c 0,-0.853072 -0.69155,-1.544622 -1.544622,-1.544622 -0.853071,0 -1.544623,0.69155 -1.544623,1.544622 0,0.853072 0.691552,1.544622 1.544623,1.544622 0.853072,0 1.544622,-0.69155 1.544622,-1.544622 z" color="#000"/><path d="m 76.052631,68.741416 c 0,-0.853072 -0.69155,-1.544623 -1.544622,-1.544623 -0.853071,0 -1.544623,0.691551 -1.544623,1.544623 0,0.853071 0.691552,1.544622 1.544623,1.544622 0.853072,0 1.544622,-0.691551 1.544622,-1.544622 z" color="#000"/><path d="m 76.052631,81.098395 c 0,-0.853072 -0.69155,-1.544622 -1.544622,-1.544622 -0.853071,0 -1.544623,0.69155 -1.544623,1.544622 0,0.853072 0.691552,1.544622 1.544623,1.544622 0.853072,0 1.544622,-0.69155 1.544622,-1.544622 z" color="#000"/><path d="m 74.473684,87.276884 c 0,-0.853071 -0.69155,-1.544621 -1.544623,-1.544621 -0.853071,0 -1.544622,0.69155 -1.544622,1.544621 0,0.853073 0.691551,1.544623 1.544622,1.544623 0.853073,0 1.544623,-0.69155 1.544623,-1.544623 z" color="#000"/><path d="m 48.249428,25.491988 c 0,-0.853071 0.691551,-1.544622 1.544623,-1.544622 0.853071,0 1.544622,0.691551 1.544622,1.544622 0,0.853072 -0.691551,1.544623 -1.544622,1.544623 -0.853072,0 -1.544623,-0.691551 -1.544623,-1.544623 z" color="#000"/><path d="m 42.070938,25.491988 c 0,-0.853071 0.691551,-1.544622 1.544623,-1.544622 0.853071,0 1.544622,0.691551 1.544622,1.544622 0,0.853072 -0.691551,1.544623 -1.544622,1.544623 -0.853072,0 -1.544623,-0.691551 -1.544623,-1.544623 z" color="#000"/><path d="m 35.892449,25.491988 c 0,-0.853071 0.69155,-1.544622 1.544622,-1.544622 0.853072,0 1.544622,0.691551 1.544622,1.544622 0,0.853072 -0.69155,1.544623 -1.544622,1.544623 -0.853072,0 -1.544622,-0.691551 -1.544622,-1.544623 z" color="#000"/><path d="m 29.713959,25.491988 c 0,-0.853071 0.69155,-1.544622 1.544623,-1.544622 0.853071,0 1.544621,0.691551 1.544621,1.544622 0,0.853072 -0.69155,1.544623 -1.544621,1.544623 -0.853073,0 -1.544623,-0.691551 -1.544623,-1.544623 z" color="#000"/><path d="m 66.784897,27.070936 c 0,-0.853072 0.691551,-1.544623 1.544623,-1.544623 0.853071,0 1.544622,0.691551 1.544622,1.544623 0,0.853071 -0.691551,1.544622 -1.544622,1.544622 -0.853072,0 -1.544623,-0.691551 -1.544623,-1.544622 z" color="#000"/><path d="m 60.606408,25.491988 c 0,-0.853071 0.69155,-1.544622 1.544622,-1.544622 0.853072,0 1.544622,0.691551 1.544622,1.544622 0,0.853072 -0.69155,1.544623 -1.544622,1.544623 -0.853072,0 -1.544622,-0.691551 -1.544622,-1.544623 z" color="#000"/><path d="m 54.427918,25.491988 c 0,-0.853071 0.69155,-1.544622 1.544622,-1.544622 0.853072,0 1.544622,0.691551 1.544622,1.544622 0,0.853072 -0.69155,1.544623 -1.544622,1.544623 -0.853072,0 -1.544622,-0.691551 -1.544622,-1.544623 z" color="#000"/><path d="m 17.356979,25.491988 c 0,-0.853071 0.691551,-1.544622 1.544623,-1.544622 0.853071,0 1.544622,0.691551 1.544622,1.544622 0,0.853072 -0.691551,1.544623 -1.544622,1.544623 -0.853072,0 -1.544623,-0.691551 -1.544623,-1.544623 z" color="#000"/><path d="m 11.17849,27.070936 c 0,-0.853072 0.69155,-1.544623 1.544622,-1.544623 0.853072,0 1.544622,0.691551 1.544622,1.544623 0,0.853071 -0.69155,1.544622 -1.544622,1.544622 -0.853072,0 -1.544622,-0.691551 -1.544622,-1.544622 z" color="#000"/><path d="m 6.5789473,87.276888 c 0,0.853072 0.6915506,1.544622 1.5446224,1.544622 0.8530716,0 1.5446221,-0.69155 1.5446221,-1.544622 0,-0.853072 -0.6915505,-1.544622 -1.5446221,-1.544622 -0.8530718,0 -1.5446224,0.69155 -1.5446224,1.544622 z" color="#000"/><path d="m 4.9999999,81.098398 c 0,0.853072 0.6915506,1.544623 1.5446224,1.544623 0.8530718,0 1.5446225,-0.691551 1.5446225,-1.544623 0,-0.853071 -0.6915507,-1.544622 -1.5446225,-1.544622 -0.8530718,0 -1.5446224,0.691551 -1.5446224,1.544622 z" color="#000"/><path d="m 4.9999999,74.919908 c 0,0.853072 0.6915506,1.544623 1.5446224,1.544623 0.8530718,0 1.5446225,-0.691551 1.5446225,-1.544623 0,-0.853071 -0.6915507,-1.544622 -1.5446225,-1.544622 -0.8530718,0 -1.5446224,0.691551 -1.5446224,1.544622 z" color="#000"/><path d="m 4.9999999,68.741418 c 0,0.853073 0.6915506,1.544623 1.5446224,1.544623 0.8530718,0 1.5446225,-0.69155 1.5446225,-1.544623 0,-0.853071 -0.6915507,-1.544621 -1.5446225,-1.544621 -0.8530718,0 -1.5446224,0.69155 -1.5446224,1.544621 z" color="#000"/><path d="m 4.9999999,62.56293 c 0,0.853071 0.6915506,1.544621 1.5446224,1.544621 0.8530718,0 1.5446225,-0.69155 1.5446225,-1.544621 0,-0.853073 -0.6915507,-1.544623 -1.5446225,-1.544623 -0.8530718,0 -1.5446224,0.69155 -1.5446224,1.544623 z" color="#000"/><path d="m 4.9999999,56.38444 c 0,0.853071 0.6915506,1.544622 1.5446224,1.544622 0.8530718,0 1.5446225,-0.691551 1.5446225,-1.544622 0,-0.853072 -0.6915507,-1.544623 -1.5446225,-1.544623 -0.8530718,0 -1.5446224,0.691551 -1.5446224,1.544623 z" color="#000"/><path d="m 4.9999999,50.20595 c 0,0.853071 0.6915506,1.544622 1.5446224,1.544622 0.8530718,0 1.5446225,-0.691551 1.5446225,-1.544622 0,-0.853072 -0.6915507,-1.544623 -1.5446225,-1.544623 -0.8530718,0 -1.5446224,0.691551 -1.5446224,1.544623 z" color="#000"/><path d="m 4.9999999,44.02746 c 0,0.853072 0.6915506,1.544622 1.5446224,1.544622 0.8530718,0 1.5446225,-0.69155 1.5446225,-1.544622 0,-0.853072 -0.6915507,-1.544622 -1.5446225,-1.544622 -0.8530718,0 -1.5446224,0.69155 -1.5446224,1.544622 z" color="#000"/><path d="m 4.9999999,37.848971 c 0,0.853071 0.6915506,1.544621 1.5446224,1.544621 0.8530718,0 1.5446225,-0.69155 1.5446225,-1.544621 0,-0.853073 -0.6915507,-1.544623 -1.5446225,-1.544623 -0.8530718,0 -1.5446224,0.69155 -1.5446224,1.544623 z" color="#000"/><path d="m 6.5789473,31.670481 c 0,0.853071 0.6915506,1.544622 1.5446224,1.544622 0.8530716,0 1.5446221,-0.691551 1.5446221,-1.544622 0,-0.853072 -0.6915505,-1.544623 -1.5446221,-1.544623 -0.8530718,0 -1.5446224,0.691551 -1.5446224,1.544623 z" color="#000"/><text x="10" y="110" fill="#000000" font-size="12px" font-weight="bold" font-family="'Helvetica Neue', Helvetica, Arial-Unicode, Arial, Sans-serif">Displacement</text></svg>