<svg xmlns="http://www.w3.org/2000/svg" xmlns:xlink="http://www.w3.org/1999/xlink" version="1.1" x="0px" y="0px" viewBox="0 0 100 125" enable-background="new 0 0 100 100" xml:space="preserve"><path d="M27.4,76.3c-0.1,0-0.2,0-0.2,0c-0.4-0.1-0.5-0.5-0.4-0.9l2.1-5.9c0.1-0.4,0.5-0.5,0.9-0.4c0.4,0.1,0.5,0.5,0.4,0.9l-2.1,5.9  C28,76.1,27.7,76.3,27.4,76.3z"/><path d="M69.9,62.7H32.7c-9,0-16.4-7.4-16.4-16.4c0-8.8,6.9-16,15.6-16.4c3.6-7,10.8-11.5,18.7-11.5c10,0,18.6,7.1,20.6,16.7  C78.2,36,83.6,41.8,83.6,49C83.6,56.6,77.5,62.7,69.9,62.7z M32.7,34c-6.8,0-12.3,5.5-12.3,12.3s5.5,12.3,12.3,12.3h37.1  c5.4,0,9.7-4.4,9.7-9.7s-4.4-9.7-9.7-9.7l-2.1,0l-0.2-1.8c-1-8.5-8.3-14.9-16.8-14.9c-6.8,0-12.9,4-15.6,10.2l-0.6,1.3L33.2,34  C33,34,32.9,34,32.7,34z"/><path d="M32.8,80.3c-0.1,0-0.2,0-0.2,0c-0.4-0.1-0.5-0.5-0.4-0.9l4.6-13c0.1-0.4,0.5-0.5,0.9-0.4c0.4,0.1,0.5,0.5,0.4,0.9l-4.6,13  C33.4,80.1,33.1,80.3,32.8,80.3z"/><path d="M40.6,77.3c-0.1,0-0.2,0-0.2,0c-0.4-0.1-0.5-0.5-0.4-0.9l3.3-9.3c0.1-0.4,0.5-0.5,0.9-0.4c0.4,0.1,0.5,0.5,0.4,0.9l-3.3,9.3  C41.2,77.2,40.9,77.3,40.6,77.3z"/><path d="M45.9,81.5c-0.1,0-0.2,0-0.2,0c-0.4-0.1-0.5-0.5-0.4-0.9l5.2-14.8c0.1-0.4,0.5-0.5,0.9-0.4c0.4,0.1,0.5,0.5,0.4,0.9L46.6,81  C46.5,81.3,46.2,81.5,45.9,81.5z"/><path d="M53.3,79.8c-0.1,0-0.2,0-0.2,0c-0.4-0.1-0.5-0.5-0.4-0.9l3.2-9c0.1-0.4,0.5-0.5,0.9-0.4c0.4,0.1,0.5,0.5,0.4,0.9l-3.2,9  C53.8,79.6,53.6,79.8,53.3,79.8z"/><path d="M59.5,81.5c-0.1,0-0.2,0-0.2,0c-0.4-0.1-0.5-0.5-0.4-0.9l4.8-13.7c0.1-0.4,0.5-0.5,0.9-0.4c0.4,0.1,0.5,0.5,0.4,0.9L60.1,81  C60,81.3,59.7,81.5,59.5,81.5z"/><path d="M68.3,75.7c-0.1,0-0.2,0-0.2,0c-0.4-0.1-0.5-0.5-0.4-0.9l2.3-6.6c0.1-0.4,0.5-0.5,0.9-0.4c0.4,0.1,0.5,0.5,0.4,0.9l-2.3,6.6  C68.8,75.5,68.5,75.7,68.3,75.7z"/><text x="15" y="90" fill="#000000" font-size="12px" font-weight="bold" font-family="'Helvetica Neue', Helvetica, Arial-Unicode, Arial, Sans-serif">Precipitation</text></svg>